# xmcd
#
# Track frame offsets:
#	150
#	14244
#	27061
#	41627
#	55767
#	71222
#	90081
#	104772
#	121882
#	137424
#	151575
#	165594
#	179978
#	195444
#	210887
#	226663
#	239133
#	252370
#	268210
#
# Disc length: 3799 seconds
# Revision: 0
# Processed by: cddbd v1.5.2PL0 Copyright (c) Steve Scherf et al.
# Submitted via: dBpowerAMP V12.0
#
DISCID=040ed513
DTITLE=Various Artist - Country Heat 2020
DYEAR=2019
DGENRE=Country Sampler
TTITLE0=Luke Combs - Beer Never Broke My Heart
TTITLE1=Dan and Shay - All To Myself
TTITLE2=Kane Brown - Good As You
TTITLE3=Old Dominion - Make It Sweet
TTITLE4=The Washboard Union - She Gets Me
TTITLE5=Maren Morris - Girl
TTITLE6=Morgan Evans - Day Drunk
TTITLE7=Tenille Townes - Somebody's Daughter
TTITLE8=High Valley - Single Man
TTITLE9=Mitchell Tenpenny - Alcohol You Later
TTITLE10=Meghan Patrick - Wild As Me
TTITLE11=Brooks and Dunn with Luke Combs - Brand New Man
TTITLE12=Gord Bamford - #Redneck
TTITLE13=Cole Swindell - Love You Too Late
TTITLE14=The Highwomen - Crowded Table
TTITLE15=Chris Janson - Good Vibes
TTITLE16=Chris Young - Raised On Country
TTITLE17=Matt Stell - Prayed For You
TTITLE18=Aaron Goodwin - Bars and Churches
EXTD=
EXTT0=
EXTT1=
EXTT2=
EXTT3=
EXTT4=
EXTT5=
EXTT6=
EXTT7=
EXTT8=
EXTT9=
EXTT10=
EXTT11=
EXTT12=
EXTT13=
EXTT14=
EXTT15=
EXTT16=
EXTT17=
EXTT18=
PLAYORDER=
